# Blender 3.5.1
# www.blender.org
mtllib detail.mtl
o DrawCall_0068.002
v 9.393300 1.193681 62.804264
v 8.153000 1.192043 60.526924
v 7.562400 1.192895 61.685276
v 17.248600 1.199810 71.619286
v 18.331400 1.199063 70.519821
v 16.559500 1.198430 69.656021
v -15.570500 1.199108 70.657227
v -14.763300 1.197862 68.772583
v -16.574499 1.198430 69.656021
v 45.618301 1.130016 -28.192032
v 44.653599 1.130877 -26.915909
v 52.371101 1.134201 -22.223808
v 51.229301 1.134912 -21.143974
v -38.998600 1.163680 19.946709
v -38.998600 1.174483 35.456341
v -37.266102 1.164014 20.358932
v -37.266102 1.174254 35.044022
v -0.017300 1.121390 -40.501625
v 6.932400 1.121649 -40.128563
v -0.017300 1.120185 -42.307755
v 7.089900 1.120383 -41.915161
v 68.278603 1.153783 5.850605
v 66.742996 1.153852 5.889866
v 70.956100 1.160506 15.391926
v 69.341797 1.160171 14.979698
v 14.886100 1.121270 -40.737183
v 14.630200 1.122471 -38.989944
v 20.851400 1.154078 6.184315
v 35.498901 1.164278 20.790882
v 21.914600 1.153326 5.084953
v 37.251099 1.164014 20.358932
v 22.977699 1.152478 3.985489
v 38.983601 1.163680 19.946709
v 22.721701 1.182879 47.353622
v 9.964200 1.191773 60.095070
v 23.804501 1.183632 48.452980
v 10.358000 1.193008 61.861942
v -14.861700 1.208445 84.046661
v -16.042999 1.208895 84.635551
v -13.503300 1.210080 86.265106
v -14.566400 1.210539 87.030762
v 24.788900 1.184384 49.611328
v 10.613900 1.194252 63.746685
v -36.439201 1.186323 52.281265
v -18.346399 1.199063 70.519821
v -34.706699 1.185729 51.554962
v -32.954498 1.185275 50.848198
v -2.832600 1.190840 58.779686
v -3.029500 1.189944 57.483925
v -5.569200 1.191324 59.447193
v -5.982600 1.190397 58.190693
v -11.790500 1.211402 88.247910
v -12.735500 1.212035 89.170700
v -21.949200 1.153326 5.084953
v -6.612600 1.142607 -10.208759
v -23.012300 1.152478 3.985489
v -7.006400 1.141372 -11.975632
v 16.165800 1.200529 72.699013
v 15.555500 1.199108 70.657227
v 14.728600 1.197762 68.772583
v 72.590202 1.160735 15.804249
v 69.833900 1.153813 5.811352
v -7.104800 1.120383 -41.915161
v -7.262300 1.119213 -43.701668
v -0.017300 1.118883 -44.113983
v -20.866400 1.154078 6.184315
v -6.218900 1.143872 -8.422153
v -6.967000 1.121649 -40.128563
v -23.819500 1.183632 48.452980
v -24.823601 1.184384 49.611328
v -8.168000 1.192043 60.526924
v -8.778300 1.191252 59.349045
v 2.798000 1.215581 94.216225
v 3.014500 1.216478 95.511978
v 5.554200 1.215098 93.548714
v 5.948000 1.216025 94.805222
v 7.247400 1.119213 -43.701668
v -35.513901 1.164278 20.790882
v -35.513901 1.173919 34.631798
v 24.434601 1.123179 -37.969009
v 32.014301 1.125381 -34.867111
v 25.064600 1.121988 -39.598473
v 32.742699 1.124264 -36.398422
v -0.017300 1.190661 58.563656
v -0.017300 1.189725 57.248367
v 50.107101 1.135731 -20.064247
v 43.688900 1.131774 -25.620148
v -7.577300 1.192895 61.685276
v -10.373000 1.193008 61.861942
v -9.428000 1.193681 62.804264
v -10.628900 1.194349 63.746689
v -69.868599 1.153813 5.811352
v -72.605103 1.160735 15.804249
v -68.313301 1.153783 5.850605
v -70.990799 1.160506 15.391926
v -15.157000 1.120034 -42.504051
v -14.901100 1.121270 -40.737183
v -45.712002 1.129985 -28.152771
v -52.386101 1.134201 -22.223808
v -44.688301 1.130882 -26.916008
v -51.263901 1.134918 -21.144073
v 8.153000 1.214386 92.468887
v 8.743600 1.215174 93.646866
v 10.554900 1.213375 90.996460
v 11.322700 1.214052 92.056656
v -22.756399 1.182879 47.353622
v -14.645100 1.122471 -38.989944
v -19.311100 1.203244 76.488144
v -19.074800 1.205306 79.511505
v -17.775499 1.205124 79.295578
v -17.992001 1.203244 76.488144
v -16.476101 1.205078 79.099190
v -16.673000 1.203244 76.488144
v 17.189501 1.209338 85.224533
v 18.351101 1.207394 82.436729
v 17.091101 1.207095 82.044136
v 16.008301 1.208895 84.635551
v 15.850800 1.206766 81.631805
v 14.846700 1.208445 84.046661
v 11.775500 1.211402 88.247910
v 12.700800 1.212035 89.170700
v 14.531700 1.210539 87.030762
v 13.468600 1.210080 86.265106
v -25.040100 1.121988 -39.598473
v -24.449499 1.123179 -37.969009
v -32.777302 1.124264 -36.398422
v -32.068600 1.125315 -34.847481
v -39.097000 1.126837 -32.805695
v -38.270100 1.127778 -31.372536
v 60.915501 1.143319 -9.128925
v 62.352699 1.142985 -9.600136
v 57.214298 1.137977 -16.765961
v 55.973900 1.138682 -15.862900
v 13.626100 1.212707 90.113022
v 9.787000 1.212592 89.936356
v 3.014500 1.189944 57.483925
v 2.798000 1.190840 58.779686
v -0.017300 1.191594 59.879044
v 2.601100 1.191738 60.075443
v -31.359800 1.126433 -33.316170
v -37.423599 1.128785 -29.959000
v -43.664501 1.131740 -25.698761
v 5.948000 1.190397 58.190693
v 5.554200 1.191324 59.447193
v 5.140800 1.192123 60.683960
v -19.074800 1.201116 73.484406
v -17.775499 1.201300 73.700333
v -17.283300 1.199810 71.619286
v -13.660800 1.212707 90.113022
v -15.629500 1.211132 87.816055
v -17.204500 1.209338 85.224533
v -3.029500 1.216478 95.511978
v -2.832600 1.215581 94.216225
v -5.569200 1.215098 93.548714
v -5.982600 1.216025 94.805222
v -8.168000 1.214386 92.468887
v -8.778300 1.215174 93.646866
v -10.589500 1.213375 90.996460
v -11.357300 1.214052 92.056656
v 15.594900 1.211132 87.816055
v -9.979200 1.191773 60.095070
v -5.155800 1.192123 60.683960
v -2.616100 1.191738 60.075443
v -16.476101 1.201350 73.896622
v 17.760500 1.201300 73.700333
v 16.461100 1.201350 73.896622
v 17.976999 1.203244 76.488144
v 16.658001 1.203244 76.488144
v -18.366100 1.207394 82.436729
v -17.106100 1.207095 82.044136
v -15.865800 1.206766 81.631805
v -9.802000 1.212592 89.936356
v -7.577300 1.213528 91.310638
v -5.155800 1.214307 92.311844
v -2.616100 1.214684 92.920464
v -0.017300 1.216698 95.747543
v -0.017300 1.215766 94.432144
v -0.017300 1.214833 93.116760
v 2.601100 1.214684 92.920464
v 5.140800 1.214307 92.311844
v 7.562400 1.213528 91.310638
v 35.498901 1.173919 34.631798
v 37.251099 1.174254 35.044022
v 38.983601 1.174483 35.456341
v -54.512299 1.173576 34.042809
v -52.838902 1.173167 33.473450
v 32.939499 1.185275 50.848198
v 34.691700 1.185729 51.554962
v 36.424198 1.186317 52.281364
v 19.059900 1.205306 79.511505
v 17.760500 1.205124 79.295578
v 16.461100 1.205078 79.099190
v 19.296101 1.203244 76.488144
v 8.743600 1.191252 59.349045
v -57.229198 1.137977 -16.765961
v -56.008598 1.138682 -15.862900
v -62.387299 1.142985 -9.600136
v -60.930401 1.143319 -9.128925
v -66.442902 1.147994 -2.434311
v -65.005798 1.148357 -2.002357
v -54.768299 1.139284 -14.959831
v -59.473598 1.143658 -8.657818
v -63.588299 1.148627 -1.570507
v 6.203900 1.143872 -8.422153
v 6.597700 1.142607 -10.208759
v 6.991400 1.141372 -11.975632
v 31.285801 1.126362 -33.355431
v 37.408600 1.128785 -29.959000
v 38.235500 1.127778 -31.372536
v 54.497398 1.173576 34.042809
v 52.823898 1.173167 33.473450
v 51.130798 1.172758 32.904087
v -69.356697 1.160171 14.979698
v -51.165401 1.172793 32.923721
v 23.784901 1.124270 -36.339539
v 64.990799 1.148357 -2.002357
v 63.553600 1.148622 -1.570404
v 59.458599 1.143658 -8.657818
v 54.753300 1.139279 -14.959732
v -66.757896 1.153852 5.889866
v -50.141701 1.135731 -20.064247
v -16.180799 1.200529 72.699013
v 19.059900 1.201116 73.484406
v 15.122400 1.120034 -42.504051
v 39.082100 1.126737 -32.805702
v 66.428001 1.147994 -2.434311
v -23.878599 1.124305 -36.319908
vn -0.0000 0.9363 0.3512
vn -0.0001 0.9363 0.3512
vn -0.0002 0.9363 0.3512
vt 1.078100 0.992200
vt 0.820300 0.492200
vt 0.820300 0.992200
vt 3.464800 0.492200
vt 0.121100 0.019500
vt 3.382800 0.000000
vt 3.214800 0.492200
vt 0.062500 0.503900
vt 0.679700 0.992200
vt 0.941400 0.992200
vt 7.003900 0.992200
vt 6.941400 0.500000
vt 0.750000 0.492200
vt 4.968800 0.000000
vt 0.003900 0.000000
vt 4.992200 0.496100
vt 4.996100 0.496100
vt 0.046900 0.496100
vt 0.043000 0.496100
vt 4.144500 0.000000
vt 4.164100 0.496100
vt 4.171900 0.496100
vt 1.523400 0.992200
vt 0.003900 0.992200
vt 0.000000 0.992200
vt 4.000000 0.992200
vt 1.484400 0.503900
vt 0.085900 0.500000
vt 0.039100 0.500000
vt 3.906300 0.503900
vt 5.027300 0.992200
vt 5.269500 0.992200
vt 4.316400 0.996100
vt 5.031300 0.496100
vt 5.269500 0.496100
vt 5.273400 0.496100
vt 5.027300 0.496100
vt 4.312500 0.500000
vt 4.312500 0.496100
vt 0.988300 0.496100
vt 1.011700 0.992200
vt 0.035200 0.496100
vt 6.914100 0.503900
vt 0.066400 0.992200
vt 6.839800 0.988300
vt 3.503900 0.496100
vt 3.500000 0.496100
vt 3.503900 0.992200
vt 2.011700 0.011700
vt 3.847700 0.011700
vt 0.082000 0.015600
vt 2.011700 0.500000
vt 3.933600 0.500000
vt 0.039100 0.503900
vt 2.007800 0.992200
vt 4.015600 0.992200
vt 0.000000 0.992200
vt 1.992200 0.011700
vt 3.796900 0.011700
vt 0.964800 0.000000
vt 1.996100 0.500000
vt 3.894500 0.500000
vt 1.105500 0.492200
vt 2.140600 0.992200
vt 2.140600 0.492200
vt 1.820300 0.992200
vt 1.820300 0.492200
vt 2.003900 0.992200
vt 4.011700 0.992200
vt 1.265600 0.992200
vt 4.593800 0.015600
vt 6.886700 0.015600
vt 0.585900 0.000000
vt 4.656300 0.500000
vt 4.718800 0.992200
vt 3.757800 0.492200
vt 3.757800 0.000000
vt 3.488300 0.492200
vt 3.488300 0.000000
vt 1.488300 0.992200
vt 1.488300 0.492200
vt 2.011700 0.500000
vt 3.937500 0.500000
vt 0.043000 0.503900
vt 2.011700 0.992200
vt 4.023400 0.992200
vt 0.000000 0.992200
vt 3.558600 0.992200
vt 3.285200 0.992200
vt 3.015600 0.992200
vt 0.003900 0.988300
vt 0.000000 0.000000
vt 6.992200 0.019500
vt 0.964800 0.000000
vt 4.554700 0.496100
vt 4.554700 0.000000
vt 5.273400 0.000000
vt 5.027300 0.000000
vt 2.007800 0.011700
vt 3.851600 0.011700
vt 0.089800 0.015600
vt 4.558600 0.992200
vt 2.011700 0.503900
vt 2.000000 0.992200
vt 3.195300 0.492200
vt 3.195300 0.000000
vt 2.730500 0.492200
vt 2.726600 0.000000
vt 2.445300 0.492200
vt 2.445300 0.000000
vt 4.308600 0.000000
vt 1.441400 0.011700
vt 0.168000 0.011700
vt 0.082000 0.011700
vt 3.812500 0.011700
vt 2.433600 0.496100
vt 1.589800 0.496100
vt 1.585900 0.496100
vt 2.394500 0.000000
vt 1.562500 0.000000
vt 0.000000 0.492200
vt 4.000000 0.492200
vt 4.000000 0.000000
vt 0.000000 0.000000
vt 4.195300 0.992200
vt 5.023400 0.992200
vt 0.085900 0.992200
vt 3.195300 0.992200
vt 2.914100 0.492200
vt 0.117200 0.503900
vt 2.941400 0.992200
vt 2.753900 0.992200
vt 0.000000 0.992200
vt 0.964800 0.000000
vt 0.000000 0.000000
vt 0.003900 0.015600
vt 0.976600 0.496100
vt 0.972700 0.496100
vt 0.082000 0.500000
vt 0.011700 0.496100
vt 3.742200 0.000000
vt 3.746100 0.496100
vt 4.960900 0.000000
vt 0.218800 0.000000
vt 4.168000 0.000000
vt 4.984400 0.496100
vt 0.238300 0.496100
vt 4.992200 0.496100
vt 4.175800 0.496100
vt 2.140600 0.492200
vt 2.140600 0.000000
vt 1.820300 0.492200
vt 1.820300 0.000000
vt 2.011700 0.011700
vt 3.750000 0.992200
vt 2.988300 0.000000
vt 0.000000 0.000000
vt 2.726600 0.000000
vt 2.730500 0.492200
vt 2.988300 0.492200
vt 0.000000 0.492200
vt 2.730500 0.992200
vt 2.988300 0.992200
vt 0.000000 0.992200
vt 0.839800 0.000000
vt 0.531300 0.000000
vt 0.531300 0.492200
vt 0.839800 0.492200
vt 0.531300 0.992200
vt 0.835900 0.992200
vt 1.488300 0.992200
vt 1.488300 0.492200
vt 1.160200 0.492200
vt 1.160200 0.992200
vt 2.769500 0.000000
vt 2.777300 0.496100
vt 1.804700 0.000000
vt 1.832000 0.496100
vt 0.988300 0.000000
vt 1.000000 0.496100
vt 1.003900 0.496100
vt 2.644500 0.496100
vt 2.648400 0.500000
vt 2.648400 0.003900
vt 3.453100 0.000000
vt 3.472700 0.496100
vt 1.488300 0.000000
vt 1.820300 0.992200
vt 0.246100 0.000000
vt 0.250000 0.492200
vt 0.000000 0.992200
vt 4.000000 0.992200
vt 0.250000 0.992200
vt 1.855500 0.992200
vt 1.015600 0.992200
vt 0.257800 0.992200
vt 5.023400 0.992200
vt 0.519500 0.000000
vt 0.523400 0.492200
vt 0.523400 0.992200
vt 0.273400 0.000000
vt 0.273400 0.492200
vt 0.507800 0.492200
vt 1.488300 0.000000
vt 1.820300 0.000000
vt 2.140600 0.000000
vt 0.250000 0.000000
vt 0.250000 0.492200
vt 0.531300 0.492200
vt 0.531300 0.000000
vt 0.839800 0.492200
vt 0.839800 0.000000
vt 1.160200 0.492200
vt 1.160200 0.000000
vt 1.160200 0.000000
vt 3.050800 0.000000
vt 0.214800 0.011700
vt 3.488300 0.992200
vt 3.757800 0.992200
vt 0.273400 0.992200
vt 3.707000 0.492200
vt 3.710900 0.992200
vt 0.000000 0.492200
vt 3.996100 0.492200
vt 3.996100 0.992200
vt 0.000000 0.992200
vt 2.445300 0.000000
vt 2.445300 0.492200
vt 2.445300 0.992200
vt 1.160200 0.992200
vt 0.839800 0.992200
vt 0.531300 0.992200
vt 0.250000 0.992200
vt 0.000000 0.000000
vt 2.988300 0.000000
vt 0.000000 0.492200
vt 2.988300 0.492200
vt 0.000000 0.992200
vt 2.988300 0.992200
vt 2.730500 0.992200
vt 2.445300 0.992200
vt 2.140600 0.992200
vt 0.187500 0.011700
vt 1.441400 0.015600
vt 0.093800 0.500000
vt 1.484400 0.503900
vt 0.000000 0.992200
vt 1.523400 0.992200
vt 2.296900 0.015600
vt 2.367200 0.500000
vt 2.281300 0.988300
vt 2.347700 0.503900
vt 2.410200 0.019500
vt 0.250000 0.000000
vt 0.250000 0.492200
vt 0.250000 0.992200
vt 0.000000 0.000000
vt 3.996100 0.000000
vt 0.816400 0.000000
vt 3.464800 0.000000
vt 3.480500 0.496100
vt 3.476600 0.496100
vt 2.609400 0.000000
vt 2.628900 0.496100
vt 2.632800 0.496100
vt 1.816400 0.000000
vt 1.828100 0.496100
vt 3.488300 0.992200
vt 2.648400 0.992200
vt 1.839800 0.992200
vt 0.175800 0.011700
vt 1.503900 0.015600
vt 0.089800 0.500000
vt 1.546900 0.503900
vt 0.003900 0.992200
vt 1.593800 0.992200
vt 1.617200 0.992200
vt 0.882800 0.992200
vt 0.847700 0.496100
vt 0.843800 0.496100
vt 4.699200 0.019500
vt 4.628900 0.503900
vt 4.558600 0.988300
vt 0.156300 0.992200
vt 0.035200 0.992200
vt 2.437500 0.992200
vt 2.460900 0.992200
vt 1.828100 0.496100
vt 1.839800 0.992200
vt 2.683600 0.992200
vt 3.492200 0.992200
vt 0.988300 0.992200
vt 4.187500 0.992200
vt 0.418000 0.992200
vt 3.707000 0.000000
vt 3.500000 0.000000
vt 0.812500 0.000000
vt 1.816400 0.000000
vt 2.781300 0.992200
s 1
usemtl 2edeb199_png.002
f 1/1/1 2/2/1 3/3/1
f 4/4/1 5/6/1 6/7/1
f 7/9/1 8/10/1 9/13/1
f 10/14/1 11/16/1 12/20/1
f 12/20/1 11/16/1 13/21/1
f 14/23/1 15/25/1 16/27/1
f 16/27/1 15/25/1 17/29/1
f 18/31/1 19/33/1 20/34/1
f 20/34/1 19/33/1 21/38/1
f 22/40/1 23/41/1 24/42/1
f 24/42/1 23/41/1 25/44/1
f 26/46/1 21/38/1 27/48/1
f 27/48/1 21/38/1 19/33/1
f 28/49/1 29/50/1 30/52/1
f 30/52/1 29/50/1 31/53/1
f 30/52/1 31/53/1 32/55/1
f 32/55/1 31/53/1 33/56/1
f 34/58/1 35/59/1 36/61/1
f 36/61/1 35/59/1 37/62/1
f 38/64/1 39/65/1 40/66/1
f 40/66/1 39/65/1 41/67/1
f 36/61/1 37/62/1 42/68/1
f 42/68/1 37/62/1 43/69/1
f 44/71/1 45/72/1 46/74/1
f 46/74/1 45/72/1 9/12/1
f 46/74/1 9/12/1 47/75/1
f 47/75/1 9/12/1 8/11/1
f 48/76/1 49/77/1 50/78/1
f 50/78/1 49/77/1 51/79/1
f 40/66/1 41/67/1 52/80/1
f 52/80/1 41/67/1 53/81/1
f 54/82/1 55/83/1 56/85/1
f 56/85/1 55/83/1 57/86/1
f 58/88/1 6/7/1 59/89/1
f 59/89/1 6/7/1 60/90/1
f 61/92/1 62/94/1 24/42/1
f 24/42/1 62/94/1 22/40/1
f 63/95/1 20/35/1 64/96/1
f 64/96/1 20/35/1 65/97/1
f 66/99/1 67/100/1 54/82/1
f 54/82/1 67/100/1 55/83/1
f 68/102/1 18/32/1 63/95/1
f 63/95/1 18/32/1 20/36/1
f 69/103/1 17/30/1 70/104/1
f 70/104/1 17/30/1 15/26/1
f 50/78/1 51/79/1 71/105/1
f 71/105/1 51/79/1 72/106/1
f 73/107/1 74/108/1 75/109/1
f 75/109/1 74/108/1 76/110/1
f 21/39/1 77/111/1 20/37/1
f 20/37/1 77/111/1 65/98/1
f 16/27/1 17/29/1 78/112/1
f 78/112/1 17/29/1 79/114/1
f 80/116/1 81/118/1 82/119/1
f 82/119/1 81/118/1 83/120/1
f 84/122/1 85/123/1 48/76/1
f 48/76/1 85/123/1 49/77/1
f 13/22/1 11/17/1 86/125/1
f 86/125/1 11/17/1 87/126/1
f 88/128/1 89/129/1 90/131/1
f 90/131/1 89/129/1 91/132/1
f 92/134/1 93/135/1 94/137/1
f 94/137/1 93/135/1 95/140/1
f 64/96/1 96/141/1 63/95/1
f 63/95/1 96/141/1 97/142/1
f 98/143/1 99/145/1 100/146/1
f 100/146/1 99/145/1 101/149/1
f 102/150/1 103/151/1 104/152/1
f 104/152/1 103/151/1 105/153/1
f 75/109/1 76/110/1 102/150/1
f 102/150/1 76/110/1 103/151/1
f 106/154/1 79/115/1 69/103/1
f 69/103/1 79/115/1 17/30/1
f 63/95/1 97/142/1 68/102/1
f 68/102/1 97/142/1 107/155/1
f 108/156/1 109/158/1 110/159/1
f 111/160/1 108/156/1 110/159/1
f 111/160/1 110/159/1 112/162/1
f 113/163/1 111/160/1 112/162/1
f 114/165/1 115/166/1 116/167/1
f 117/168/1 114/165/1 116/167/1
f 117/168/1 116/167/1 118/169/1
f 119/170/1 117/168/1 118/169/1
f 120/171/1 121/172/1 122/173/1
f 123/174/1 120/171/1 122/173/1
f 123/174/1 122/173/1 117/168/1
f 119/170/1 123/174/1 117/168/1
f 97/142/1 96/141/1 124/175/1
f 125/176/1 97/142/1 124/175/1
f 125/176/1 124/175/1 126/177/1
f 127/178/1 125/176/1 126/177/1
f 127/178/1 126/177/1 128/179/1
f 129/180/1 127/178/1 128/179/1
f 129/180/1 128/179/1 98/144/1
f 100/147/1 129/180/1 98/144/1
f 130/183/1 131/184/1 132/185/1
f 133/186/1 130/183/1 132/185/1
f 133/186/1 132/185/1 12/20/1
f 13/21/1 133/186/1 12/20/1
f 78/113/1 66/99/1 54/82/1
f 16/28/1 78/113/1 54/82/1
f 16/28/1 54/82/1 56/85/1
f 14/24/1 16/28/1 56/85/1
f 105/153/1 134/187/1 121/172/1
f 104/152/1 105/153/1 121/172/1
f 104/152/1 121/172/1 120/171/1
f 135/188/1 104/152/1 120/171/1
f 136/189/1 85/124/1 84/121/1
f 137/190/1 136/189/1 84/121/1
f 137/190/1 84/121/1 138/191/1
f 139/193/1 137/190/1 138/191/1
f 140/194/1 127/178/1 129/181/1
f 141/195/1 140/194/1 129/181/1
f 141/195/1 129/181/1 100/147/1
f 142/196/1 141/195/1 100/147/1
f 143/198/1 136/189/1 137/190/1
f 144/199/1 143/198/1 137/190/1
f 144/199/1 137/190/1 139/193/1
f 145/200/1 144/199/1 139/193/1
f 146/201/1 147/202/1 148/203/1
f 45/73/1 146/201/1 148/203/1
f 45/73/1 148/203/1 9/13/1
f 149/204/1 53/81/1 41/67/1
f 150/205/1 149/204/1 41/67/1
f 150/205/1 41/67/1 39/65/1
f 151/206/1 150/205/1 39/65/1
f 152/207/1 153/208/1 154/209/1
f 155/210/1 152/207/1 154/209/1
f 155/210/1 154/209/1 156/211/1
f 157/212/1 155/210/1 156/211/1
f 157/212/1 156/211/1 158/213/1
f 159/214/1 157/212/1 158/213/1
f 114/165/1 117/168/1 122/173/1
f 160/215/1 114/165/1 122/173/1
f 160/215/1 122/173/1 121/172/1
f 134/187/1 160/215/1 121/172/1
f 72/106/1 161/216/1 89/129/1
f 71/105/1 72/106/1 89/129/1
f 71/105/1 89/129/1 88/128/1
f 50/78/1 71/105/1 88/128/1
f 50/78/1 88/128/1 162/218/1
f 48/76/1 50/78/1 162/218/1
f 48/76/1 162/218/1 163/219/1
f 84/122/1 48/76/1 163/219/1
f 84/122/1 163/219/1 138/192/1
f 146/201/1 108/157/1 111/161/1
f 147/202/1 146/201/1 111/161/1
f 147/202/1 111/161/1 113/164/1
f 164/220/1 147/202/1 113/164/1
f 4/4/1 6/7/1 58/88/1
f 165/221/1 4/4/1 58/88/1
f 165/221/1 58/88/1 166/222/1
f 167/224/1 165/221/1 166/222/1
f 167/224/1 166/222/1 168/225/1
f 109/158/1 169/227/1 170/228/1
f 110/159/1 109/158/1 170/228/1
f 110/159/1 170/228/1 171/229/1
f 112/162/1 110/159/1 171/229/1
f 169/227/1 151/206/1 39/65/1
f 170/228/1 169/227/1 39/65/1
f 170/228/1 39/65/1 38/64/1
f 171/229/1 170/228/1 38/64/1
f 149/204/1 159/214/1 158/213/1
f 53/81/1 149/204/1 158/213/1
f 53/81/1 158/213/1 172/230/1
f 52/80/1 53/81/1 172/230/1
f 172/230/1 158/213/1 156/211/1
f 173/231/1 172/230/1 156/211/1
f 173/231/1 156/211/1 154/209/1
f 174/232/1 173/231/1 154/209/1
f 174/232/1 154/209/1 153/208/1
f 175/233/1 174/232/1 153/208/1
f 152/207/1 176/234/1 177/236/1
f 153/208/1 152/207/1 177/236/1
f 153/208/1 177/236/1 178/238/1
f 175/233/1 153/208/1 178/238/1
f 176/235/1 74/108/1 73/107/1
f 177/237/1 176/235/1 73/107/1
f 177/237/1 73/107/1 179/240/1
f 178/239/1 177/237/1 179/240/1
f 179/240/1 73/107/1 75/109/1
f 180/241/1 179/240/1 75/109/1
f 180/241/1 75/109/1 102/150/1
f 181/242/1 180/241/1 102/150/1
f 181/242/1 102/150/1 104/152/1
f 135/188/1 181/242/1 104/152/1
f 182/243/1 34/58/1 36/61/1
f 183/245/1 182/243/1 36/61/1
f 183/245/1 36/61/1 42/68/1
f 184/247/1 183/245/1 42/68/1
f 95/139/1 93/136/1 185/249/1
f 186/250/1 95/139/1 185/249/1
f 186/250/1 185/249/1 44/71/1
f 46/74/1 186/250/1 44/71/1
f 187/251/1 60/91/1 6/8/1
f 188/252/1 187/251/1 6/8/1
f 188/252/1 6/8/1 5/5/1
f 189/253/2 188/252/1 5/5/1
f 115/166/1 190/254/1 191/255/1
f 116/167/1 115/166/1 191/255/1
f 116/167/1 191/255/1 192/256/1
f 118/169/1 116/167/1 192/256/1
f 190/254/1 193/257/1 167/223/1
f 191/255/1 190/254/1 167/223/1
f 191/255/1 167/223/1 168/226/1
f 192/256/1 191/255/1 168/226/1
f 70/104/1 91/133/1 89/130/1
f 69/103/1 70/104/1 89/130/1
f 69/103/1 89/130/1 161/217/1
f 106/154/1 69/103/1 161/217/1
f 194/259/1 143/198/1 144/199/1
f 2/2/1 194/259/1 144/199/1
f 2/2/1 144/199/1 145/200/1
f 3/3/1 2/2/1 145/200/1
f 101/149/1 99/145/1 195/260/1
f 196/261/1 101/149/1 195/260/1
f 196/261/1 195/260/1 197/263/1
f 198/264/1 196/261/1 197/263/1
f 198/264/1 197/263/1 199/266/1
f 200/267/1 198/264/1 199/266/1
f 200/267/1 199/266/1 92/134/1
f 94/137/1 200/267/1 92/134/1
f 201/268/1 196/262/1 198/265/1
f 202/269/1 201/268/1 198/265/1
f 202/269/1 198/265/1 200/267/1
f 203/270/1 202/269/1 200/267/1
f 204/271/1 28/49/1 30/52/1
f 205/273/1 204/271/1 30/52/1
f 205/273/1 30/52/1 32/55/1
f 206/275/1 205/273/1 32/55/1
f 81/117/1 207/277/1 208/278/1
f 209/279/1 81/117/1 208/278/1
f 209/279/1 208/278/1 87/127/1
f 11/18/1 209/279/1 87/127/1
f 210/281/3 61/93/1 24/43/1
f 211/282/1 210/281/3 24/43/1
f 211/282/1 24/43/1 25/45/1
f 212/283/1 211/282/1 25/45/1
f 189/253/2 210/281/3 211/282/1
f 188/252/1 189/253/2 211/282/1
f 188/252/1 211/282/1 212/283/1
f 187/251/1 188/252/1 212/283/1
f 213/284/1 95/139/1 186/250/1
f 214/286/1 213/284/1 186/250/1
f 214/286/1 186/250/1 46/74/1
f 47/75/1 214/286/1 46/74/1
f 207/277/1 81/117/1 80/116/1
f 215/287/1 207/277/1 80/116/1
f 215/287/1 80/116/1 26/46/1
f 27/48/1 215/287/1 26/46/1
f 23/41/1 22/40/1 216/288/1
f 217/289/1 23/41/1 216/288/1
f 217/289/1 216/288/1 130/182/1
f 218/290/1 217/289/1 130/182/1
f 218/290/1 130/182/1 133/186/1
f 219/291/1 218/290/1 133/186/1
f 219/291/1 133/186/1 13/22/1
f 86/125/1 219/291/1 13/22/1
f 184/248/1 33/57/1 31/54/1
f 183/246/1 184/248/1 31/54/1
f 183/246/1 31/54/1 29/51/1
f 182/244/1 183/246/1 29/51/1
f 213/285/1 220/292/1 95/140/1
f 95/140/1 220/292/1 94/138/1
f 94/138/1 220/292/1 200/267/1
f 200/267/1 220/292/1 203/270/1
f 100/148/1 101/149/1 142/197/1
f 142/197/1 101/149/1 221/293/1
f 221/293/1 101/149/1 201/268/1
f 201/268/1 101/149/1 196/262/1
f 204/272/1 205/274/1 67/101/1
f 67/101/1 205/274/1 55/84/1
f 55/84/1 205/274/1 57/87/1
f 57/87/1 205/274/1 206/276/1
f 43/70/1 37/63/1 1/1/1
f 1/1/1 37/63/1 2/2/1
f 2/2/1 37/63/1 194/259/1
f 194/259/1 37/63/1 35/60/1
f 164/220/1 222/294/1 147/202/1
f 147/202/1 222/294/1 148/203/1
f 148/203/1 222/294/1 9/13/1
f 9/13/1 222/294/1 7/9/1
f 4/4/1 165/221/1 5/6/1
f 5/6/1 165/221/1 223/295/1
f 223/295/1 165/221/1 193/258/1
f 193/258/1 165/221/1 167/224/1
f 82/119/1 224/296/1 80/116/1
f 80/116/1 224/296/1 26/47/1
f 26/47/1 224/296/1 21/39/1
f 21/39/1 224/296/1 77/111/1
f 10/15/1 225/297/1 11/19/1
f 11/19/1 225/297/1 209/280/1
f 209/280/1 225/297/1 81/118/1
f 81/118/1 225/297/1 83/120/1
f 62/94/1 226/298/1 22/40/1
f 22/40/1 226/298/1 216/288/1
f 216/288/1 226/298/1 130/183/1
f 130/183/1 226/298/1 131/184/1
f 97/142/1 125/176/1 107/155/1
f 107/155/1 125/176/1 227/299/1
f 227/299/1 125/176/1 140/194/1
f 140/194/1 125/176/1 127/178/1
