# Blender 3.5.1
# www.blender.org
mtllib pitch.mtl
o DrawCall_0061.002
v 3.113000 1.026261 -176.534790
v 36.030499 1.035823 -162.909882
v 40.184601 1.026261 -176.534790
v 36.995201 1.036162 -162.438751
v -145.251999 1.100910 -69.812820
v -168.246994 1.126583 -33.060890
v -132.199203 1.103754 -65.670357
v -161.218597 1.136219 -19.337845
v -30.099800 1.035823 -162.909882
v 2.975200 1.035823 -162.909882
v -114.421402 1.083920 -94.058952
v -125.584198 1.078976 -101.244408
v 116.040497 1.080400 -99.143730
v 110.823303 1.088842 -87.109047
v 172.464905 1.120672 -41.581352
v 166.243607 1.128372 -30.587250
v 73.909203 1.062432 -124.783684
v 78.102699 1.053379 -137.839203
v -69.927597 1.041648 -154.605316
v -63.529202 1.049795 -142.963348
v -31.359800 1.036082 -162.536804
v -33.958599 1.026261 -176.534790
v -96.643600 1.064136 -122.466972
v -105.916397 1.056936 -132.675903
v -95.698601 1.063505 -123.389763
v -56.008598 1.138682 -15.862900
v -29.784800 1.143319 -9.128925
v -51.263901 1.134918 -21.144073
v -44.688301 1.130882 -26.916008
v 14.768000 1.189869 57.385777
v -0.017300 1.200220 72.188644
v 20.260799 1.195744 65.886620
v 5.337700 1.206239 80.826897
v -20.393900 1.195740 65.827728
v -14.901100 1.189799 57.346516
v -35.435101 1.185275 50.848198
v -29.784800 1.179445 42.484764
v -65.005798 1.148357 -2.002357
v -37.266102 1.164014 20.358932
v -60.930401 1.143319 -9.128925
v -29.784800 1.158717 12.918285
v 6.597700 1.142607 -10.208759
v -0.017300 1.120185 -42.307755
v -0.017300 1.142607 -10.208759
v -7.104800 1.120383 -41.915161
v -6.612600 1.142607 -10.208759
v -14.901100 1.121270 -40.737183
v 38.235500 1.127778 -31.372536
v 29.769899 1.143319 -9.128925
v 44.653599 1.130877 -26.915909
v 51.229301 1.134912 -21.143974
v 35.203602 1.185350 50.946346
v 29.553301 1.179555 42.602539
v 24.434601 1.123179 -37.969009
v 14.886100 1.121270 -40.737183
v 32.033901 1.125315 -34.847481
v -70.990799 1.160506 15.391926
v -65.497902 1.164282 20.849771
v -68.313301 1.153783 5.850605
v 65.483002 1.164282 20.849771
v 70.956100 1.160506 15.391926
v 68.278603 1.153783 5.850605
v 37.251099 1.164014 20.358932
v 64.990799 1.148357 -2.002357
v 60.915501 1.143319 -9.128925
v 29.769899 1.158717 12.918285
v 55.973900 1.138682 -15.862900
v -37.266102 1.174254 35.044022
v -50.476398 1.174782 35.848938
v -38.270100 1.127778 -31.372536
v -32.068600 1.125315 -34.847481
v -24.449499 1.123179 -37.969009
v 7.089900 1.120383 -41.915161
v -0.017300 1.206239 80.826897
v -5.372300 1.206239 80.826897
v 50.441700 1.174782 35.848938
v 37.251099 1.174254 35.044022
vn -0.0000 0.9363 0.3512
vn -0.0001 0.9363 0.3512
vn 0.0001 0.9363 0.3512
vt 15.156300 14.992200
vt 18.390600 13.414100
vt 18.796900 14.992200
vt 18.484400 13.359400
vt 2.546900 4.996100
vt 0.574200 2.644500
vt 0.000000 1.359400
vt 3.996100 4.585900
vt 1.855500 2.164100
vt 0.777300 0.003900
vt 11.890600 13.414100
vt 15.140600 13.414100
vt 3.601600 5.453100
vt 2.503900 6.281300
vt 25.855499 6.437500
vt 26.253901 6.039100
vt 25.343800 5.046900
vt 25.742201 4.648400
vt 29.984400 1.562500
vt 29.371099 0.293000
vt 22.113300 9.003900
vt 22.527300 10.515600
vt 7.976600 12.453100
vt 8.605500 11.109400
vt 11.765600 13.371100
vt 11.511700 14.992200
vt 5.347700 8.738300
vt 4.437500 9.918000
vt 5.441400 8.843800
vt 2.371100 10.957000
vt 5.148400 10.226600
vt 2.875000 11.531300
vt 3.570300 12.160200
vt 9.882800 3.007800
vt 8.304700 1.398400
vt 10.464800 2.085900
vt 8.871100 0.460900
vt 6.144500 2.085900
vt 6.726600 3.007800
vt 4.550800 3.714800
vt 5.148400 4.621100
vt 1.414100 9.453100
vt 4.355500 7.023400
vt 1.847700 10.226600
vt 5.148400 7.832000
vt 9.003900 10.343800
vt 8.304700 13.832000
vt 8.304700 10.343800
vt 7.550800 13.789100
vt 7.605500 10.343800
vt 6.726600 13.660200
vt 12.359400 12.644500
vt 11.460900 10.226600
vt 13.039100 12.160200
vt 13.734400 11.531300
vt 12.058600 3.714800
vt 11.460900 4.621100
vt 10.894500 13.359400
vt 9.882800 13.660200
vt 11.703100 13.019500
vt 0.781300 7.566400
vt 1.363300 6.972700
vt 1.066400 8.601600
vt 15.246100 6.972700
vt 15.824200 7.566400
vt 15.543000 8.601600
vt 12.253900 7.023400
vt 15.191400 9.453100
vt 14.761700 10.226600
vt 11.460900 7.832000
vt 14.238300 10.957000
vt 4.355500 5.429700
vt 2.957000 5.343800
vt 4.250000 12.644500
vt 4.906300 13.019500
vt 5.714800 13.359400
vt 9.058600 13.789100
vt 8.304700 0.460900
vt 7.738300 0.460900
vt 13.652300 5.343800
vt 12.253900 5.429700
s 1
usemtl b98804d7_png.001
f 1/1/1 2/2/1 3/3/1
f 3/3/1 2/2/1 4/4/1
f 5/5/1 6/7/1 7/8/1
f 7/8/1 6/7/1 8/10/1
f 9/11/1 10/12/1 1/1/1
f 1/1/1 10/12/1 2/2/1
f 11/13/1 12/14/1 7/9/1
f 7/9/1 12/14/1 5/6/1
f 13/15/1 14/17/1 15/19/1
f 15/19/1 14/17/1 16/20/1
f 17/21/1 18/22/1 4/4/1
f 4/4/1 18/22/1 3/3/1
f 18/22/1 17/21/1 13/16/1
f 13/16/1 17/21/1 14/18/1
f 19/23/2 20/24/1 21/25/1
f 22/26/1 19/23/2 21/25/1
f 22/26/1 21/25/1 9/11/1
f 1/1/1 22/26/1 9/11/1
f 12/14/1 11/13/1 23/27/1
f 24/28/1 12/14/1 23/27/1
f 24/28/1 23/27/1 25/29/1
f 19/23/2 24/28/1 25/29/1
f 19/23/2 25/29/1 20/24/1
f 26/30/1 27/31/1 28/32/1
f 28/32/1 27/31/1 29/33/1
f 30/34/1 31/35/1 32/36/2
f 32/36/2 31/35/1 33/37/1
f 34/38/1 35/39/3 36/40/1
f 36/40/1 35/39/3 37/41/1
f 38/42/1 39/43/1 40/44/1
f 40/44/1 39/43/1 41/45/1
f 42/46/1 43/47/1 44/48/1
f 44/48/1 43/47/1 45/49/1
f 44/48/1 45/49/1 46/50/1
f 46/50/1 45/49/1 47/51/1
f 48/52/1 49/53/1 50/54/1
f 50/54/1 49/53/1 51/55/1
f 32/36/2 52/56/1 30/34/1
f 30/34/1 52/56/1 53/57/1
f 54/58/1 55/59/1 49/53/1
f 56/60/1 54/58/1 49/53/1
f 56/60/1 49/53/1 48/52/1
f 57/61/1 58/62/1 39/43/1
f 59/63/1 57/61/1 39/43/1
f 59/63/1 39/43/1 38/42/1
f 60/64/1 61/65/1 62/66/1
f 63/67/1 60/64/1 62/66/1
f 63/67/1 62/66/1 64/68/1
f 65/69/1 63/67/1 64/68/1
f 66/70/1 63/67/1 65/69/1
f 49/53/1 66/70/1 65/69/1
f 49/53/1 65/69/1 67/71/1
f 51/55/1 49/53/1 67/71/1
f 41/45/1 46/50/1 27/31/1
f 40/44/1 41/45/1 27/31/1
f 40/44/1 27/31/1 26/30/1
f 36/40/1 37/41/1 68/72/1
f 69/73/1 36/40/1 68/72/1
f 69/73/1 68/72/1 39/43/1
f 58/62/1 69/73/1 39/43/1
f 70/74/1 29/33/1 27/31/1
f 71/75/1 70/74/1 27/31/1
f 71/75/1 27/31/1 46/50/1
f 72/76/1 71/75/1 46/50/1
f 72/76/1 46/50/1 47/51/1
f 43/47/1 42/46/1 73/77/1
f 73/77/1 42/46/1 55/59/1
f 55/59/1 42/46/1 49/53/1
f 49/53/1 42/46/1 66/70/1
f 33/37/1 31/35/1 74/78/1
f 74/78/1 31/35/1 75/79/1
f 75/79/1 31/35/1 34/38/1
f 34/38/1 31/35/1 35/39/3
f 52/56/1 76/80/1 53/57/1
f 53/57/1 76/80/1 77/81/1
f 77/81/1 76/80/1 63/67/1
f 63/67/1 76/80/1 60/64/1
